External Loads File
version=1
nRows=78
nColumns=13
Range=5.000000e-03-10 seconds
endheader
time 	forceRightX 	forceRightY 	forceRightZ 	pointRightX 	pointRightY 	pointRightZ 	forceLeftX 	forceLeftY 	forceLeftZ 	pointLeftX 	pointLeftY 	pointLeftZ 		
7.505000 -74.678156 11.545682 -0.000000 0.349635 0.514577 -0.199666 132.560154 400.959252 -0.000000 0.301468 0.149468 -0.442972
7.510000 -71.472880 30.383756 -0.000000 0.357897 0.513162 -0.199576 133.041567 369.324004 -0.000000 0.291726 0.151207 -0.442832
7.515000 -67.617471 52.624092 -0.000000 0.365779 0.510934 -0.199465 132.091220 337.117096 -0.000000 0.282087 0.153574 -0.442705
7.520000 -63.521597 78.789583 -0.000000 0.373336 0.507739 -0.199210 129.994934 304.489196 -0.000000 0.272631 0.156665 -0.442483
7.525000 -59.553772 109.283027 -0.000000 0.380637 0.503491 -0.198536 127.103993 271.582256 -0.000000 0.263269 0.160367 -0.442362
7.530000 -56.311198 144.101003 -0.000000 0.387454 0.498776 -0.198102 123.122491 238.873958 -0.000000 0.254309 0.164727 -0.442070
7.535000 -53.889247 183.088389 -0.000000 0.393930 0.492392 -0.197739 118.769360 206.435954 -0.000000 0.245621 0.169694 -0.441845
7.540000 -52.858035 225.439971 -0.000000 0.400193 0.486199 -0.197239 113.850298 174.905715 -0.000000 0.237286 0.175351 -0.441563
7.545000 -53.210208 270.094795 -0.000000 0.406313 0.479422 -0.196945 108.805822 144.615489 -0.000000 0.229143 0.181591 -0.441448
7.550000 -54.844224 315.572267 -0.000000 0.412583 0.471852 -0.196784 103.737005 115.994292 -0.000000 0.221408 0.188322 -0.441300
7.555000 -57.503986 360.082203 -0.000000 0.418820 0.463629 -0.196791 98.549444 89.474872 -0.000000 0.213890 0.195542 -0.440631
7.560000 -61.471214 401.612308 -0.000000 0.425088 0.455026 -0.196848 93.002187 65.644215 -0.000000 0.207255 0.203148 -0.440699
7.565000 -66.214050 438.450681 -0.000000 0.430951 0.445776 -0.196445 87.209963 44.827530 -0.000000 0.201156 0.211029 -0.440871
7.570000 -71.561180 469.313767 -0.000000 0.436746 0.436515 -0.195997 81.311013 27.332422 -0.000000 0.195680 0.219263 -0.441014
7.575000 -77.338842 493.614229 -0.000000 0.442051 0.427044 -0.195989 75.490372 13.254912 -0.000000 0.190671 0.227854 -0.441247
7.580000 -83.426309 511.479286 -0.000000 0.447161 0.417381 -0.196376 69.924530 2.504791 -0.000000 0.186311 0.236714 -0.441533
7.585000 -90.237376 523.551042 -0.000000 0.452048 0.407420 -0.196528 64.797138 -5.077407 -0.000000 0.182441 0.245350 -0.441676
7.590000 -96.179797 531.252744 -0.000000 0.456547 0.397112 -0.196406 60.258378 -10.012650 -0.000000 0.179211 0.254975 -0.441829
7.595000 -102.535756 535.753689 -0.000000 0.460687 0.386845 -0.196303 56.440949 -12.567727 -0.000000 0.176539 0.264934 -0.442013
7.600000 -109.318510 538.447208 -0.000000 0.464424 0.376518 -0.196276 53.439327 -13.233716 -0.000000 0.174366 0.275011 -0.442055
7.605000 -115.751994 540.745270 -0.000000 0.467617 0.365903 -0.196060 51.306600 -12.565077 -0.000000 0.172800 0.285323 -0.442066
7.610000 -121.759316 543.672233 -0.000000 0.470271 0.355212 -0.195810 50.089750 -11.007246 -0.000000 0.171709 0.295784 -0.442098
7.615000 -127.136367 547.934390 -0.000000 0.472383 0.344539 -0.195652 49.776500 -8.985515 -0.000000 0.171159 0.306305 -0.442081
7.620000 -130.756541 554.102747 -0.000000 0.473875 0.333752 -0.195513 50.248132 -6.976933 -0.000000 0.171164 0.317054 -0.442214
7.625000 -132.458158 562.218262 -0.000000 0.474737 0.322909 -0.195206 51.300255 -5.336616 -0.000000 0.171724 0.327853 -0.442253
7.630000 -131.785869 572.117520 -0.000000 0.474916 0.312079 -0.194934 52.637952 -4.378876 -0.000000 0.173015 0.338726 -0.442177
7.635000 -128.409366 583.404012 -0.000000 0.474463 0.301309 -0.194690 53.904811 -4.286881 -0.000000 0.174776 0.349706 -0.442475
7.640000 -122.613909 595.437237 -0.000000 0.473181 0.290653 -0.194397 54.704995 -5.055593 -0.000000 0.177098 0.360539 -0.442364
7.645000 -113.991358 607.686084 -0.000000 0.471274 0.280039 -0.193938 54.658432 -6.639351 -0.000000 0.180056 0.371344 -0.442249
7.650000 -102.303442 619.540237 -0.000000 0.468661 0.269208 -0.193391 53.510242 -8.898028 -0.000000 0.183453 0.382078 -0.441969
7.655000 -89.256357 630.041796 -0.000000 0.465407 0.258826 -0.192775 51.210381 -11.492093 -0.000000 0.187511 0.392507 -0.441909
7.660000 -74.606659 638.562194 -0.000000 0.461179 0.248962 -0.191948 47.820961 -14.283383 -0.000000 0.192050 0.402785 -0.441689
7.665000 -58.336008 644.442408 -0.000000 0.456616 0.239175 -0.192120 43.490903 -17.173438 -0.000000 0.197185 0.412890 -0.441694
7.670000 -42.287820 647.017118 -0.000000 0.451733 0.229968 -0.191891 38.489121 -20.041575 -0.000000 0.202751 0.422574 -0.441330
7.675000 -25.478831 646.070692 -0.000000 0.446170 0.221096 -0.191577 33.012563 -23.046670 -0.000000 0.208940 0.431908 -0.440983
7.680000 -7.818673 641.412300 -0.000000 0.439965 0.212525 -0.191073 27.196994 -26.271024 -0.000000 0.215777 0.441034 -0.441251
7.685000 7.898532 633.000067 -0.000000 0.433552 0.204560 -0.190853 21.228347 -29.633132 -0.000000 0.222471 0.449689 -0.440311
7.690000 23.228634 620.997951 -0.000000 0.426602 0.197252 -0.190715 15.076971 -33.198939 -0.000000 0.229858 0.457820 -0.440039
7.695000 37.584959 605.616521 -0.000000 0.419712 0.190358 -0.190766 8.752638 -36.872174 -0.000000 0.237942 0.465359 -0.440599
7.700000 50.950684 587.138263 -0.000000 0.411902 0.183982 -0.190544 2.209215 -40.490580 -0.000000 0.245647 0.472527 -0.439731
7.705000 63.428999 565.887623 -0.000000 0.403690 0.178256 -0.190002 -4.581661 -43.843130 -0.000000 0.253813 0.478909 -0.439446
7.710000 75.166266 542.232644 -0.000000 0.395176 0.173152 -0.189908 -11.585970 -46.709964 -0.000000 0.262407 0.484792 -0.439580
7.715000 85.783583 516.679902 -0.000000 0.386377 0.168780 -0.189872 -18.684045 -48.873957 -0.000000 0.271271 0.489899 -0.439496
7.720000 95.648617 489.674924 -0.000000 0.377164 0.164933 -0.189711 -25.823537 -50.083541 -0.000000 0.280333 0.494139 -0.439470
7.725000 104.671280 461.711465 -0.000000 0.367692 0.161947 -0.189602 -32.893456 -50.113121 -0.000000 0.289758 0.496940 -0.439428
7.730000 113.480435 433.044919 -0.000000 0.357832 0.159566 -0.189203 -39.794466 -48.757964 -0.000000 0.299337 0.499834 -0.439550
7.735000 121.185358 404.200071 -0.000000 0.347873 0.157873 -0.189149 -46.192614 -46.019474 -0.000000 0.308867 0.501978 -0.439651
7.740000 128.225054 375.273684 -0.000000 0.337711 0.157030 -0.189144 -51.865146 -41.803817 -0.000000 0.318593 0.503418 -0.439633
7.745000 133.898194 346.614064 -0.000000 0.327491 0.156779 -0.189201 -56.473048 -36.076278 -0.000000 0.328018 0.504189 -0.439581
7.750000 138.252449 318.271421 -0.000000 0.317205 0.157212 -0.189187 -59.853128 -28.603612 -0.000000 0.337205 0.504224 -0.439834
7.755000 141.050591 290.370900 -0.000000 0.307027 0.158461 -0.189341 -61.983827 -19.066844 -0.000000 0.346122 0.503538 -0.440201
7.760000 142.201063 263.029177 -0.000000 0.296938 0.160310 -0.189286 -63.068899 -6.993128 -0.000000 0.354649 0.502066 -0.440424
7.765000 141.765184 236.375812 -0.000000 0.287074 0.162792 -0.189434 -63.514206 8.213628 -0.000000 0.362927 0.500036 -0.440579
7.770000 140.010825 210.487630 -0.000000 0.277375 0.166049 -0.189534 -63.824025 27.177788 -0.000000 0.370930 0.497090 -0.440974
7.775000 137.236466 185.448748 -0.000000 0.267958 0.169929 -0.189671 -64.443019 50.354075 -0.000000 0.378970 0.493341 -0.441449
7.780000 133.376391 161.653574 -0.000000 0.258707 0.174395 -0.189847 -65.812074 77.760606 -0.000000 0.386179 0.488613 -0.441765
7.785000 128.948973 139.062209 -0.000000 0.249726 0.179638 -0.190325 -68.088006 109.274769 -0.000000 0.393103 0.483285 -0.442289
7.790000 124.022468 117.930770 -0.000000 0.241041 0.185247 -0.190336 -71.513502 144.252746 -0.000000 0.399467 0.477403 -0.442712
7.795000 118.904352 98.211205 -0.000000 0.232782 0.191397 -0.190815 -76.122607 181.827087 -0.000000 0.405560 0.470918 -0.442947
7.800000 113.801723 79.788724 -0.000000 0.224904 0.198104 -0.190964 -81.765106 220.890034 -0.000000 0.411653 0.463692 -0.443249
7.805000 108.620053 62.821189 -0.000000 0.217456 0.205180 -0.191177 -88.721084 260.003942 -0.000000 0.417545 0.455995 -0.443605
7.810000 103.412798 47.234313 -0.000000 0.210523 0.212684 -0.191313 -96.842462 297.901534 -0.000000 0.423274 0.447693 -0.443970
7.815000 98.214204 32.870520 -0.000000 0.204083 0.220640 -0.191332 -105.502272 333.578443 -0.000000 0.429058 0.438686 -0.444379
7.820000 92.913627 19.805871 -0.000000 0.198257 0.229019 -0.191438 -114.605802 366.045653 -0.000000 0.434615 0.429252 -0.444516
7.825000 87.434515 7.957542 -0.000000 0.193043 0.237873 -0.191366 -123.449481 394.783647 -0.000000 0.440311 0.419653 -0.444477
7.830000 81.663474 -2.362937 -0.000000 0.188386 0.246887 -0.191245 -132.965718 419.140806 -0.000000 0.445202 0.410247 -0.444330
7.835000 75.558919 -11.335447 -0.000000 0.184366 0.256298 -0.191241 -141.705066 439.675344 -0.000000 0.449863 0.400499 -0.444287
7.840000 69.110407 -18.763930 -0.000000 0.180992 0.265889 -0.191288 -149.863065 456.897115 -0.000000 0.454265 0.390472 -0.444543
7.845000 62.414006 -24.540359 -0.000000 0.178182 0.275658 -0.191348 -157.201941 471.784963 -0.000000 0.458419 0.380090 -0.444171
7.850000 55.712376 -28.487274 -0.000000 0.175971 0.285686 -0.191357 -164.161256 485.179483 -0.000000 0.462021 0.369734 -0.443989
7.855000 49.264647 -30.649413 -0.000000 0.174392 0.295897 -0.191388 -170.130646 498.131451 -0.000000 0.465234 0.359177 -0.443902
7.860000 43.347040 -31.125599 -0.000000 0.173344 0.306184 -0.191491 -175.000286 511.252643 -0.000000 0.467804 0.348449 -0.443908
7.865000 38.135140 -30.161069 -0.000000 0.172883 0.316742 -0.191621 -178.160681 525.031296 -0.000000 0.469528 0.337612 -0.444188
7.870000 33.765369 -28.008715 -0.000000 0.173053 0.327186 -0.191828 -179.831073 539.475784 -0.000000 0.470883 0.326676 -0.444178
7.875000 30.241291 -25.034621 -0.000000 0.173663 0.337908 -0.192005 -179.514687 554.760765 -0.000000 0.471621 0.315853 -0.444738
7.880000 27.517270 -21.577646 -0.000000 0.174910 0.348489 -0.192364 -177.589088 570.709186 -0.000000 0.471608 0.305051 -0.444592
7.885000 25.420368 -18.043019 -0.000000 0.176769 0.359175 -0.192463 -173.318388 587.349997 -0.000000 0.471078 0.294222 -0.444618
7.890000 23.737495 -14.793966 -0.000000 0.179162 0.369847 -0.192778 -166.606147 604.266500 -0.000000 0.469899 0.283368 -0.444778
